<svg width="716" height="621" viewBox="0 0 716 621" fill="none" xmlns="http://www.w3.org/2000/svg">
<path d="M503.482 231.251C503.714 234.729 503.714 238.208 503.714 241.686C503.714 347.768 428.444 470 290.874 470C248.491 470 209.119 456.832 176 433.977C182.022 434.722 187.811 434.97 194.065 434.97C229.036 434.97 261.229 422.3 286.936 400.686C254.049 399.941 226.489 376.836 216.993 345.036C221.625 345.781 226.257 346.278 231.121 346.278C237.837 346.278 244.554 345.284 250.807 343.545C216.53 336.092 190.822 303.795 190.822 264.79V263.797C200.78 269.76 212.361 273.486 224.635 273.982C204.486 259.573 191.285 234.978 191.285 207.153C191.285 192.247 194.99 178.583 201.475 166.657C238.3 215.351 293.652 247.151 355.72 250.629C354.563 244.667 353.868 238.456 353.868 232.245C353.868 188.023 387.218 152 428.674 152C450.213 152 469.667 161.689 483.332 177.341C500.238 173.863 516.45 167.155 530.81 157.963C525.251 176.596 513.44 192.247 497.923 202.184C512.977 200.446 527.568 195.973 541 189.763C530.811 205.662 518.073 219.822 503.482 231.251Z" fill="white"/>
<path d="M708.5 310.5C708.5 476.876 552.614 613.5 358 613.5C163.386 613.5 7.5 476.876 7.5 310.5C7.5 144.124 163.386 7.5 358 7.5C552.614 7.5 708.5 144.124 708.5 310.5Z" stroke="white" stroke-width="15"/>
</svg>
