<svg width="689" height="677" viewBox="0 0 689 677" fill="none" xmlns="http://www.w3.org/2000/svg">
<path d="M530.121 153.129L530.122 153.129C556.298 179.206 564.479 210.862 566.176 246.699L566.675 246.675L566.176 246.703C568.275 283.684 568.275 394.466 566.176 431.447L566.176 431.45C564.379 467.288 556.198 498.945 530.121 525.021L530.121 525.022C504.044 551.198 472.388 559.379 436.551 561.076L436.547 561.076C399.566 563.175 288.684 563.175 251.703 561.076L251.7 561.076C215.863 559.279 184.305 551.099 158.128 525.021C131.952 498.944 123.771 467.288 122.074 431.451L122.074 431.447C119.975 394.466 119.975 283.584 122.074 246.603L122.074 246.6C123.871 210.761 131.952 179.105 158.128 153.029C184.305 126.952 215.963 118.771 251.699 117.074L251.703 117.074C288.684 114.975 399.566 114.975 436.547 117.074L436.55 117.074C472.388 118.871 504.045 127.052 530.121 153.129ZM476.459 514.24L476.461 514.239C496.287 506.288 511.489 491.088 519.34 471.36C525.227 456.567 527.475 431.606 528.262 406.341C528.826 388.247 528.641 369.94 528.49 355.025C528.43 349.097 528.375 343.705 528.375 339.075C528.375 334.444 528.43 329.053 528.49 323.127C528.641 308.221 528.826 289.931 528.262 271.847C527.475 246.594 525.227 221.634 519.34 206.791L519.339 206.789C511.388 186.963 496.188 171.761 476.46 163.91L476.459 163.91C461.666 158.073 436.706 155.825 411.441 155.025C393.211 154.448 374.765 154.625 359.789 154.769C353.994 154.824 348.718 154.875 344.175 154.875C339.544 154.875 334.153 154.82 328.227 154.76C313.321 154.609 295.031 154.424 276.947 154.988C251.694 155.775 226.734 158.023 211.891 163.91L211.889 163.911C192.063 171.862 176.861 187.062 169.01 206.79L169.01 206.791C163.173 221.584 160.925 246.544 160.125 271.809C159.548 290.039 159.725 308.485 159.869 323.461C159.924 329.256 159.975 334.532 159.975 339.075C159.975 343.706 159.92 349.097 159.86 355.023C159.709 369.929 159.524 388.219 160.088 406.303C160.875 431.556 163.123 456.516 169.01 471.359L169.011 471.361C176.962 491.187 192.162 506.389 211.89 514.24L211.891 514.24C226.684 520.077 251.644 522.325 276.909 523.125C295.139 523.702 313.585 523.525 328.561 523.381C334.356 523.326 339.632 523.275 344.175 523.275C348.806 523.275 354.197 523.33 360.123 523.39C375.029 523.541 393.319 523.726 411.403 523.162C436.656 522.375 461.616 520.127 476.459 514.24ZM229.775 339.075C229.775 275.751 280.851 224.675 344.175 224.675C407.499 224.675 458.575 275.751 458.575 339.075C458.575 402.399 407.499 453.475 344.175 453.475C280.851 453.475 229.775 402.399 229.775 339.075ZM268.975 339.075C268.975 380.552 302.799 414.275 344.175 414.275C385.551 414.275 419.375 380.552 419.375 339.075C419.375 297.599 385.651 263.875 344.175 263.875C302.699 263.875 268.975 297.599 268.975 339.075ZM490.075 219.475C490.075 234.098 478.3 245.775 463.775 245.775C449.152 245.775 437.475 234 437.475 219.475C437.475 204.951 449.251 193.175 463.775 193.175C478.299 193.175 490.075 204.951 490.075 219.475Z" fill="white" stroke="white"/>
<path d="M681.5 338.5C681.5 521.183 530.745 669.5 344.5 669.5C158.255 669.5 7.5 521.183 7.5 338.5C7.5 155.817 158.255 7.5 344.5 7.5C530.745 7.5 681.5 155.817 681.5 338.5Z" stroke="white" stroke-width="15"/>
</svg>
