<svg width="449" height="449" viewBox="0 0 449 449" fill="none" xmlns="http://www.w3.org/2000/svg">
<path d="M410.121 38.1286L410.122 38.1292C436.298 64.2059 444.479 95.8622 446.176 131.699L446.675 131.675L446.176 131.703C448.275 168.684 448.275 279.466 446.176 316.447L446.176 316.45C444.379 352.288 436.198 383.945 410.121 410.021L410.121 410.022C384.044 436.198 352.388 444.379 316.551 446.076L316.547 446.076C279.566 448.175 168.684 448.175 131.703 446.076L131.7 446.076C95.8631 444.279 64.3053 436.099 38.1279 410.021C11.9517 383.944 3.77143 352.288 2.07446 316.451L2.0742 316.447C-0.0247322 279.466 -0.0247322 168.584 2.07421 131.603L2.07437 131.6C3.8713 95.7613 11.9521 64.1054 38.1279 38.0292C64.3051 11.9516 95.9626 3.7714 131.699 2.07446L131.703 2.0742C168.684 -0.0247322 279.566 -0.0247322 316.547 2.07421L316.55 2.07437C352.388 3.87124 384.045 12.0517 410.121 38.1286ZM356.459 399.24L356.461 399.239C376.287 391.288 391.489 376.088 399.34 356.36C405.227 341.567 407.475 316.606 408.262 291.341C408.826 273.247 408.641 254.94 408.49 240.025C408.43 234.097 408.375 228.705 408.375 224.075C408.375 219.444 408.43 214.053 408.49 208.127C408.641 193.221 408.826 174.931 408.262 156.847C407.475 131.594 405.227 106.634 399.34 91.7907L399.339 91.7889C391.388 71.9626 376.188 56.7614 356.46 48.9104L356.459 48.9099C341.666 43.0734 316.706 40.8249 291.441 40.0252C273.211 39.4482 254.765 39.6252 239.789 39.7688C233.994 39.8244 228.718 39.875 224.175 39.875C219.544 39.875 214.153 39.8204 208.227 39.7603C193.321 39.6093 175.031 39.424 156.947 39.9877C131.694 40.7749 106.734 43.0234 91.8907 48.9102L91.8889 48.9109C72.0626 56.8616 56.8614 72.062 49.0104 91.7901L49.0099 91.7915C43.1734 106.584 40.9249 131.544 40.1253 156.809C39.5482 175.039 39.7252 193.485 39.8688 208.461C39.9244 214.256 39.975 219.532 39.975 224.075C39.975 228.706 39.9204 234.097 39.8604 240.023C39.7093 254.929 39.524 273.219 40.0877 291.303C40.875 316.556 43.1234 341.516 49.0102 356.359L49.0109 356.361C56.9616 376.187 72.1619 391.389 91.8901 399.24L91.8915 399.24C106.684 405.077 131.644 407.325 156.909 408.125C175.139 408.702 193.585 408.525 208.561 408.381C214.356 408.326 219.632 408.275 224.175 408.275C228.806 408.275 234.197 408.33 240.123 408.39C255.029 408.541 273.319 408.726 291.403 408.162C316.656 407.375 341.616 405.127 356.459 399.24ZM109.775 224.075C109.775 160.751 160.851 109.675 224.175 109.675C287.499 109.675 338.575 160.751 338.575 224.075C338.575 287.399 287.499 338.475 224.175 338.475C160.851 338.475 109.775 287.399 109.775 224.075ZM148.975 224.075C148.975 265.552 182.799 299.275 224.175 299.275C265.551 299.275 299.375 265.552 299.375 224.075C299.375 182.599 265.651 148.875 224.175 148.875C182.699 148.875 148.975 182.599 148.975 224.075ZM370.075 104.475C370.075 119.098 358.3 130.775 343.775 130.775C329.152 130.775 317.475 119 317.475 104.475C317.475 89.9511 329.251 78.175 343.775 78.175C358.299 78.175 370.075 89.9511 370.075 104.475Z" fill="white" stroke="white"/>
</svg>
