<svg width="689" height="633" viewBox="0 0 689 633" fill="none" xmlns="http://www.w3.org/2000/svg">
<path d="M435.19 345L446.909 263.922H373.634V211.309C373.634 189.128 383.87 167.506 416.688 167.506H450V98.4775C450 98.4775 419.77 93 390.867 93C330.522 93 291.078 131.833 291.078 202.13V263.922H224V345H291.078V541H373.634V345H435.19Z" fill="white"/>
<path d="M666.5 316.5C666.5 486.72 519.428 625.5 337 625.5C154.572 625.5 7.5 486.72 7.5 316.5C7.5 146.28 154.572 7.5 337 7.5C519.428 7.5 666.5 146.28 666.5 316.5Z" stroke="white" stroke-width="15"/>
</svg>
