<svg width="275" height="512" viewBox="0 0 275 512" fill="none" xmlns="http://www.w3.org/2000/svg">
<path d="M181.06 288V511.5H81.89V288V287.5H81.39H0.5V195.84H81.39H81.89V195.34V124.72C81.89 84.6498 93.8232 53.6088 114.826 32.5859C135.83 11.5625 165.961 0.5 202.47 0.5C219.978 0.5 237.895 2.06283 251.439 3.6267C258.21 4.40851 263.885 5.1903 267.868 5.77654C269.859 6.06966 271.427 6.31388 272.496 6.48476C273.031 6.57019 273.442 6.63729 273.718 6.683L273.72 6.68334V84.65H233.8C213.781 84.65 200.568 90.8657 192.369 100.347C184.182 109.814 181.06 122.462 181.06 135.21V195.34V195.84H181.56H269.887L255.821 287.5H181.56H181.06V288Z" fill="white" stroke="white"/>
</svg>
