<svg width="512" height="416" viewBox="0 0 512 416" fill="none" xmlns="http://www.w3.org/2000/svg">
<path d="M459.075 103.23L459.37 103.634L458.871 103.67C459.195 108.197 459.195 112.728 459.195 117.279C459.195 255.784 353.779 415.337 161.137 415.337C102.55 415.337 48.0738 398.588 2.07215 369.46C9.7871 370.257 17.2935 370.53 25.34 370.53C74.5098 370.53 119.776 353.923 155.922 325.592L157.025 324.728L155.625 324.698C109.993 323.734 71.7094 294.028 58.2265 253.039C64.4757 253.949 70.745 254.55 77.32 254.55C86.786 254.55 96.2501 253.244 105.059 250.961L105.033 249.987C57.1803 240.286 21.291 198.254 21.291 147.492V147.041C35.1575 154.635 51.2086 159.371 68.2032 160.012L69.9729 160.078L68.4994 159.096C40.369 140.342 21.941 108.333 21.941 72.121C21.941 52.9809 26.975 35.4167 35.8045 20.0449C87.5469 83.5092 165.121 124.93 252.074 129.473L252.722 129.507L252.59 128.872C250.971 121.103 250.001 113.017 250.001 104.934C250.001 47.3811 296.56 0.5 354.435 0.5C384.505 0.5 411.664 13.1095 430.74 33.4788L430.928 33.68L431.199 33.6281C454.524 29.1549 476.908 20.6058 496.816 8.90423C488.894 32.597 472.603 52.4862 451.316 65.1947L451.625 66.1211C472.203 63.9062 492.16 58.3053 510.599 50.5212C496.506 70.6886 479.027 88.661 459.075 103.23Z" fill="white" stroke="white"/>
</svg>
